<?xml version="1.0" standalone="no"?><!DOCTYPE svg PUBLIC "-//W3C//DTD SVG 1.1//EN" "http://www.w3.org/Graphics/SVG/1.1/DTD/svg11.dtd"><svg t="1723163423499" class="icon" viewBox="0 0 1024 1024" version="1.1" xmlns="http://www.w3.org/2000/svg" p-id="7408" xmlns:xlink="http://www.w3.org/1999/xlink" width="200" height="200"><path d="M515.012613 96.043427c86.019119 0 188.619892 31.784914 188.586123 183.205579 0 148.187017-35.511795 239.387136-111.774713 287.036365-9.399067 5.885034-15.239076 16.355503-15.498996 27.761274l-1.410116 66.496483c-0.352017 17.355273 12.190647 32.083719 28.873608 33.81413C760.034073 710.515263 863.661222 769.899768 863.661222 802.084795c0 103.471606-191.889355 125.181047-352.912725 125.181047-160.993694 0-352.918865-21.709441-352.918865-125.181047 0-32.150234 103.629195-91.569532 259.84405-107.727537 16.425088-1.694595 28.9084-15.990183 28.9084-33.083489l0-66.496483c0-11.668761-5.904477-22.473851-15.528672-28.461215-76.135004-47.578622-113.160269-141.471059-113.160269-287.036365 0-151.450341 102.536304-183.235254 188.586123-183.235254L515.012613 96.04445M515.012613 64.119343l-8.532327 0c-59.233056 0-107.829867 13.710256-144.440693 40.751123-23.720238 17.519002-42.11826 40.518832-54.683437 68.359924-13.44829 29.79663-20.267603 65.47727-20.267603 106.049315 0 37.956474 2.478448 73.163323 7.365758 104.641245 5.01113 32.273031 12.732999 61.779042 22.951735 87.697341 21.160949 53.67241 54.044894 94.731548 97.740068 122.037451l0.026606 0.016373 0.026606 0.016373c0.356111 0.222057 0.578168 0.639566 0.578168 1.089821l0 66.496483c0 0.693802-0.48607 1.24741-1.155313 1.316995-73.40994 7.592932-143.705959 25.511024-197.945281 50.453089-24.788569 11.399631-44.895513 23.593348-59.763129 36.245506-19.832697 16.876366-29.889751 34.639938-29.889751 52.79646 0 17.995863 4.160763 34.971489 12.365632 50.454112 7.416923 13.995759 18.180058 26.755364 31.991622 37.924751 22.910802 18.529005 53.912887 32.891108 94.77862 43.909046 61.080124 16.467043 143.371338 24.817222 244.587578 24.817222 101.225449 0 183.519734-8.349155 244.595764-24.817222 40.862663-11.017938 71.862701-25.381064 94.771457-43.910069 13.809517-11.169387 24.571628-23.930015 31.987528-37.925774 8.203846-15.482623 12.362562-32.456203 12.362562-50.452065 0-18.163685-10.05603-35.931351-29.887704-52.809763-14.867616-12.653181-34.977629-24.847921-59.770292-36.246529-54.233182-24.932856-124.537388-42.845831-197.961654-50.438763-0.657986-0.068562-1.149173-0.660032-1.133823-1.376347l1.409093-66.466808c0.010233-0.453325 0.246617-0.89744 0.630357-1.137916 21.978571-13.732769 41.306778-30.91715 57.422827-51.060933 16.017812-20.020986 29.375028-43.617403 39.700187-70.133314 19.868513-51.02307 29.5275-114.209158 29.5275-193.167464 0.00921-40.559764-6.807033-76.238358-20.258393-106.034988-12.567223-27.836999-30.968315-50.833759-54.694693-68.350714C622.832248 77.827553 574.23646 64.119343 515.012613 64.119343L515.012613 64.119343z" fill="#272636" p-id="7409"></path></svg>