<?xml version="1.0" standalone="no"?><!DOCTYPE svg PUBLIC "-//W3C//DTD SVG 1.1//EN" "http://www.w3.org/Graphics/SVG/1.1/DTD/svg11.dtd"><svg t="1723163373529" class="icon" viewBox="0 0 1024 1024" version="1.1" xmlns="http://www.w3.org/2000/svg" p-id="6409" xmlns:xlink="http://www.w3.org/1999/xlink" width="200" height="200"><path d="M901.12 0H122.88C53.248 0 0 53.248 0 122.88v778.24c0 65.536 53.248 122.88 122.88 122.88h778.24c69.632 0 122.88-57.344 122.88-122.88V122.88c0-69.632-53.248-122.88-122.88-122.88z m81.92 901.12c0 45.056-36.864 81.92-81.92 81.92H122.88c-45.056 0-81.92-36.864-81.92-81.92V122.88c0-45.056 36.864-81.92 81.92-81.92h778.24c45.056 0 81.92 36.864 81.92 81.92v778.24z" fill="#666666" p-id="6410"></path><path d="M741.376 471.04l-159.744-90.112-159.744-90.112c-4.096-4.096-8.192-8.192-16.384-8.192-20.48 0-36.864 16.384-36.864 40.96v368.64c0 20.48 16.384 36.864 36.864 36.864 8.192 0 12.288 0 20.48-4.096l159.744-90.112 159.744-90.112c20.48-20.48 20.48-57.344-4.096-73.728z m-180.224 122.88L409.6 684.032V327.68l151.552 90.112 151.552 90.112-151.552 86.016z" fill="#666666" p-id="6411"></path><path d="M839.68 839.68m-61.44 0a61.44 61.44 0 1 0 122.88 0 61.44 61.44 0 1 0-122.88 0Z" fill="#9EB9FD" p-id="6412"></path></svg>